<svg id="Layer_1" data-name="Layer 1" xmlns="http://www.w3.org/2000/svg" xmlns:xlink="http://www.w3.org/1999/xlink" viewBox="0 0 1920 1080"><defs><style>.cls-1{fill:#fff;}.cls-2{fill:#101636;}.cls-3{fill:url(#linear-gradient);}.cls-4{fill:url(#linear-gradient-2);}.cls-5{fill:url(#linear-gradient-3);}.cls-6{fill:url(#linear-gradient-4);}.cls-7{fill:url(#linear-gradient-5);}.cls-8{fill:url(#linear-gradient-6);}.cls-9{fill:url(#linear-gradient-7);}</style><linearGradient id="linear-gradient" x1="740.93" y1="511.94" x2="778.88" y2="511.94" gradientUnits="userSpaceOnUse"><stop offset="0" stop-color="#0845f8"/><stop offset="1" stop-color="#0fe5fd"/></linearGradient><linearGradient id="linear-gradient-2" x1="754.59" y1="529.14" x2="737" y2="559.27" gradientUnits="userSpaceOnUse"><stop offset="0" stop-color="#0fe5fd"/><stop offset="1" stop-color="#0845f8"/></linearGradient><linearGradient id="linear-gradient-3" x1="755.51" y1="556.89" x2="777.45" y2="586.49" xlink:href="#linear-gradient-2"/><linearGradient id="linear-gradient-4" x1="783.68" y1="568.06" x2="821.33" y2="568.06" xlink:href="#linear-gradient-2"/><linearGradient id="linear-gradient-5" x1="807.17" y1="551.53" x2="823.32" y2="520.8" xlink:href="#linear-gradient-2"/><linearGradient id="linear-gradient-6" x1="804.61" y1="522.96" x2="784.73" y2="493.42" xlink:href="#linear-gradient-2"/><linearGradient id="linear-gradient-7" x1="780.63" y1="557.09" x2="780.63" y2="524.01" xlink:href="#linear-gradient"/></defs><rect class="cls-1" width="1920" height="1080"/><path class="cls-2" d="M930.76,526.27a20,20,0,0,0-8-8.15,24.39,24.39,0,0,0-11.92-2.8,26.09,26.09,0,0,0-13.39,3.41,23.51,23.51,0,0,0-9.12,9.73,34.31,34.31,0,0,0,.06,29.45,23.73,23.73,0,0,0,9.3,9.73,27.51,27.51,0,0,0,13.88,3.41q9.72,0,15.94-5.17t8.15-14.42h-29.2v-13h46v14.84a40,40,0,0,1-7.3,16.43,41.18,41.18,0,0,1-14.42,12.1,42.29,42.29,0,0,1-19.77,4.57,44.77,44.77,0,0,1-22.21-5.54,40.26,40.26,0,0,1-15.57-15.39,47.23,47.23,0,0,1,0-44.84,40.14,40.14,0,0,1,15.57-15.45,44.53,44.53,0,0,1,22.09-5.54q14.36,0,24.94,7a35.73,35.73,0,0,1,14.6,19.65Z"/><path class="cls-2" d="M990.68,520.31a23.86,23.86,0,0,1,12.11-3v17.88h-4.5q-8,0-12.11,3.77t-4.08,13.15v33.58h-17V518.24h17V528.7a24.1,24.1,0,0,1,8.58-8.39"/><path class="cls-2" d="M1077.86,518.24v67.41h-17.15v-8.52a22.45,22.45,0,0,1-8.58,6.87,26.53,26.53,0,0,1-11.5,2.5,28.55,28.55,0,0,1-14-3.35,23.53,23.53,0,0,1-9.55-9.85,32.48,32.48,0,0,1-3.47-15.52V518.24h17v37.11q0,8,4,12.35t10.95,4.32q7.05,0,11.07-4.32t4-12.35V518.24Z"/><path class="cls-2" d="M1151.48,524.87q7.41,7.61,7.42,21.23v39.55h-17V548.42q0-8-4-12.35t-10.95-4.32q-7.07,0-11.14,4.32t-4.07,12.35v37.23h-17V518.24h17v8.4a23.5,23.5,0,0,1,8.7-6.88,27,27,0,0,1,11.62-2.49q12,0,19.47,7.6"/><path class="cls-2" d="M1194.91,532.23v32.61c0,2.27.55,3.92,1.64,4.93s2.94,1.52,5.54,1.52H1210v14.36h-10.71q-21.54,0-21.53-20.93V532.23h-8v-14h8V501.57h17.15v16.67H1210v14Z"/><circle class="cls-2" cx="780.62" cy="540" r="70.62"/><path class="cls-3" d="M756.26,503.35a15.33,15.33,0,0,0-15.33,15.33v1.85h22.62a15.34,15.34,0,0,0,15.33-15.33v-1.85Z"/><path class="cls-4" d="M736.71,542.77a15.31,15.31,0,0,0,5.61,20.94l1.6.93,11.31-19.59a15.34,15.34,0,0,0-5.62-20.94l-1.6-.92Z"/><path class="cls-5" d="M761.07,579.42A15.31,15.31,0,0,0,782,585l1.6-.92L772.3,564.52a15.33,15.33,0,0,0-20.94-5.61l-1.6.92Z"/><path class="cls-6" d="M805,576.65a15.32,15.32,0,0,0,15.33-15.33v-1.85H797.7a15.34,15.34,0,0,0-15.33,15.33v1.85Z"/><path class="cls-7" d="M824.54,537.23a15.31,15.31,0,0,0-5.61-20.94l-1.6-.93L806,535a15.34,15.34,0,0,0,5.61,20.94l1.6.92Z"/><path class="cls-8" d="M800.18,500.58A15.32,15.32,0,0,0,779.24,495l-1.6.92L789,515.48a15.33,15.33,0,0,0,20.94,5.61l1.6-.92Z"/><path class="cls-9" d="M797.56,540a17,17,0,1,1-1.89-7.74A16.65,16.65,0,0,1,797.56,540Z"/></svg>